<svg xmlns="http://www.w3.org/2000/svg" width="210" height="51" fill="none" viewBox="0 0 210 51"><path fill="#555" d="M24.905 19.213q0 .31.178.596t.463.506q.294.22.626.343.263-.082.54-.27a2 2 0 0 0 .472-.465.98.98 0 0 0 .193-.58q0-.35-.162-.644a1.25 1.25 0 0 0-.433-.473 1.03 1.03 0 0 0-.595-.18 1.3 1.3 0 0 0-.903.343 1.06 1.06 0 0 0-.379.824m.935-2.604.872-1.82q1.43.72 2.526 1.323 1.096.604 1.846 1.183.749.579 1.127 1.233.386.652.386 1.477 0 1.616-.927 2.465-.918.84-2.448.84a7 7 0 0 1-1.127-.097 12 12 0 0 1-1.128-.245q-.533-.146-.926-.278-.696.261-1.591.482a7.2 7.2 0 0 1-1.738.22h-.764v-2.195h.664q.309 0 .564-.009.263-.008.54-.032a2.4 2.4 0 0 1-.332-.555 4 4 0 0 1-.216-.686 3 3 0 0 1 .27-2.09 2.8 2.8 0 0 1 1.012-1.085q.671-.424 1.63-.424.702 0 1.366.359.672.36 1.097.98.432.61.432 1.403 0 .441-.1.825a3.15 3.15 0 0 1-.672 1.305q.355.058.703.09.355.033.533.033.548 0 .95-.27.4-.277.401-.979a.8.8 0 0 0-.131-.4 2.2 2.2 0 0 0-.433-.506 7 7 0 0 0-.865-.653q-.555-.367-1.428-.832a44 44 0 0 0-2.093-1.061m2.479-3.525q-.146-.007-.263-.016a3 3 0 0 1-.286-.04 2.6 2.6 0 0 1-1.127.889q-.71.301-1.691.359l-.116-.735q.734-.065 1.313-.245.58-.18.872-.449a2.1 2.1 0 0 1-.671-.212 1.4 1.4 0 0 1-.526-.465q-.2-.302-.2-.775 0-.572.378-.98a1.23 1.23 0 0 1 .95-.416q.57 0 .95.392.378.384.378 1.012 0 .237-.046.481a3 3 0 0 1-.14.49q.085.008.148.017.06.007.162.016zm-.958-.881a2.4 2.4 0 0 0 .14-.4q.053-.22.053-.392a.62.62 0 0 0-.17-.457.53.53 0 0 0-.401-.171.58.58 0 0 0-.456.204.68.68 0 0 0-.17.44q0 .245.14.392a1 1 0 0 0 .37.229q.232.081.494.155"/><path fill="#555" d="m18.835 17.932 1.807-.229.155 2.253q.023.425.162.702.147.277.425.408t.71.13h.163v2.196h-.178q-.525 0-.942-.139a2.5 2.5 0 0 1-.734-.383 2.7 2.7 0 0 1-.548-.572 3.1 3.1 0 0 1-1.112.809q-.649.285-1.383.285h-.741v-2.195h.741q.873 0 1.213-.335t.34-1.184q0-.456-.023-.89a15 15 0 0 0-.055-.856m.371-4.269 1.336 1.412-1.336 1.412-1.336-1.412z"/><path fill="#555" d="M16.712 23.392a2.5 2.5 0 0 1-.688-.09 1.9 1.9 0 0 1-.525-.228 6 6 0 0 1-.764 2.187 5.1 5.1 0 0 1-1.553 1.624q-.965.662-2.324.947l-.71-2.008q1.142-.27 1.938-.718.803-.441 1.22-1.167t.417-1.812q0-.735-.209-1.632a19 19 0 0 0-.455-1.69l1.915-.67.448 1.82q.14.564.41.907.278.335.795.335h.3v2.195z"/><path fill="#444" d="m67.11 36.765.019-3.13.38-.4h15.335q1.404 0 1.879-.282.474-.3.474-.842 0-.522-.209-1.003-.19-.48-.341-.682h1.575q-.892.22-1.537.341-.646.12-1.177.18-.513.04-1.044.04H71.456q-1.1 0-1.84-.581-.74-.602-.893-2.066l7.972-7.382h.227l1.519 2.488-5.713 5.115-.55-1.104h11.121q.967 0 1.86-.06.911-.06 1.48-.18h.228q.476.461.968 1.243.513.783.873 1.765.36.963.36 2.047 0 .862-.284 1.684-.265.803-.949 1.445-.664.622-1.84 1.003-1.16.36-2.962.36z"/><path fill="#444" d="M59.297 33.234h3.682l-1.31.582q-.284-.22-.379-.822a10 10 0 0 1-.095-1.525v-5.295l3.796-.402h.228v9.187l-1.632-1.725h3.91v3.13l-.38.4h-8.2v-3.129zm3.872-8.745q-.702 0-1.214-.462-.494-.48-.494-1.344 0-.882.494-1.344a1.76 1.76 0 0 1 1.214-.46q.722 0 1.215.46.493.462.493 1.344 0 .862-.493 1.344-.494.462-1.215.462"/><path fill="#444" d="m51.224 36.765 1.67-3.53h6.396l-.019 3.129-.38.4zM41.108 28.56l-.55-1.104H51.68q.968 0 1.86-.06.91-.06 1.48-.18h.228q.474.46.949 1.143.493.683.835 1.484.342.803.341 1.625 0 .983-.455 1.886-.437.902-1.556 1.624l-.55 1.344q-.552.201-1.253.321-.703.12-1.576.12H35.49l.02-3.129.379-.4h15.335q1.405 0 1.88-.342.473-.36.474-.983 0-.52-.21-.902a4 4 0 0 0-.34-.582h1.575q-.893.22-1.538.341-.645.12-1.177.18-.512.04-1.043.04H39.837q-1.101 0-1.841-.581-.74-.602-.892-2.066l7.97-7.382h.229l1.518 2.488z"/><path fill="#444" d="M24.142 32.131q0-1.203.399-2.287a6.3 6.3 0 0 1 1.139-1.905 5.5 5.5 0 0 1 1.67-1.304 4.5 4.5 0 0 1 2.05-.482q1.006 0 1.992.542.988.542 1.803 1.565.816 1.022 1.31 2.487.493 1.465.493 3.31 0 2.607-.816 4.372-.797 1.785-2.24 2.668-1.44.903-3.396.903-1.33 0-2.297-.24-.968-.242-1.5-.482l-.53-.24 1.138-3.29h.228a6.7 6.7 0 0 0 1.727.561q.91.16 1.461.16.816 0 1.462-.2a2.7 2.7 0 0 0 1.082-.622l-.968.983q.17-.24.341-.702.171-.441.266-1.304.114-.882.114-2.407a8.7 8.7 0 0 0-.171-1.765 6.2 6.2 0 0 0-.494-1.565 5.6 5.6 0 0 0-.854-1.303 4.7 4.7 0 0 0-1.176-1.023l1.784.14q-1.101.24-1.727 1.063a2.97 2.97 0 0 0-.608 1.805q0 .342.19.763.19.42.608.722.436.28 1.176.28h1.386v-.1h5.067v3.13l-.38.4-6.187.02q-1.65 0-2.904-.54-1.252-.562-1.954-1.606-.684-1.042-.684-2.507M13.97 38.129q.549.14 1.062.22.513.1.987.1.74 0 1.253-.22t.645-.361l-.873.963q.323-.442.513-1.184.19-.741.265-1.745.096-1.003.095-2.186 0-1.785-.17-3.41-.172-1.626-.361-3.05l3.872-.4h.227q.19 1.404.323 3.169.133 1.745.133 3.37 0 2.406-.494 4.052-.474 1.644-1.366 2.627a5 5 0 0 1-2.088 1.445q-1.196.46-2.657.46-.493 0-1.063-.08t-.968-.16l-.398-.08v-.24z"/><path fill="#333" d="m141.468 36.765 2.125-3.745h18.625q.026-.721-.43-1.15-.43-.454-1.847-.454h-14.956l3.594-3.745h11.362q1.872 0 3.011.562 1.139.561 1.721 1.498.607.935.835 2.06.228 1.122.228 2.272.025 1.124.025 2.087 0 .32-.253.454-.253.135-.506.16zm8.173-5.59-1.796-2.728 9.211-9.628v5.59q-.177-.295-.354-.295a.45.45 0 0 0-.329.16z"/><path fill="#333" d="m137.738 36.765.759-3.745h4.985v3.745zm4.353-4.547-4.277-4.547q.328 0 .936-.026a11 11 0 0 0 1.265-.188 5.2 5.2 0 0 0 1.24-.454q.582-.32.836-.83zm-4.277 4.547a4 4 0 0 1-2.151-.615 4.7 4.7 0 0 1-1.594-1.659 4.6 4.6 0 0 1-.582-2.273q0-1.257.582-2.273a4.7 4.7 0 0 1 1.594-1.658 4 4 0 0 1 2.151-.616q1.19 0 2.151.616.961.614 1.543 1.658.583 1.016.583 2.273a4.63 4.63 0 0 1-.583 2.3 4.64 4.64 0 0 1-1.543 1.632 3.9 3.9 0 0 1-2.151.615m0-3.745a.7.7 0 0 0 .531-.214.88.88 0 0 0 .203-.588.78.78 0 0 0-.203-.562.66.66 0 0 0-.531-.24.74.74 0 0 0-.557.24.74.74 0 0 0-.228.562q0 .348.228.588a.78.78 0 0 0 .557.214m-3.442 7.275q1.443.401 2.278.214.86-.16 1.265-.642.405-.48.506-.99.127-.48.127-.722v-4.814l3.543-1.123v5.135q0 1.578-.633 2.568-.633 1.015-1.62 1.47a4.5 4.5 0 0 1-2.049.482 4.8 4.8 0 0 1-2-.428q-.91-.4-1.417-1.15m-17.84-3.53V33.02h2.024V28.5l3.543-.829v5.35h1.518V28.5l3.543-.83v5.35h1.519V28.5l3.542-.83v8.479q0 .32-.253.454a1.4 1.4 0 0 1-.506.16h-14.93m9.241-19.175q-.607 0-1.037-.454a1.54 1.54 0 0 1-.43-1.097q0-.642.43-1.096a1.38 1.38 0 0 1 1.037-.455q.608 0 1.038.455.43.454.43 1.096t-.43 1.097a1.38 1.38 0 0 1-1.038.454m2.177 4.012q-.608 0-1.038-.455a1.54 1.54 0 0 1-.43-1.096q0-.642.43-1.097a1.38 1.38 0 0 1 1.038-.454q.607 0 1.037.454.43.456.43 1.097 0 .642-.43 1.096a1.38 1.38 0 0 1-1.037.455m-4.378 0q-.608 0-1.038-.455a1.54 1.54 0 0 1-.43-1.096q0-.642.43-1.097a1.38 1.38 0 0 1 1.038-.454q.608 0 1.037.454.43.456.431 1.097 0 .642-.431 1.096a1.37 1.37 0 0 1-1.037.455"/><path fill="#333" d="M112.585 36.765V33.02h4.96v3.745zm-22.37 0 2.126-3.745h18.625q.025-.721-.431-1.15-.43-.454-1.847-.454H93.733l3.593-3.745h11.362q1.873 0 3.012.562 1.138.561 1.72 1.498.608.935.835 2.06.228 1.122.228 2.272.025 1.124.025 2.087 0 .32-.253.454a1.4 1.4 0 0 1-.506.16zm8.174-5.59-1.797-2.728 9.211-9.628v5.59q-.177-.295-.354-.295a.45.45 0 0 0-.329.16z"/><g stroke="#000" stroke-width="1.596"><path fill="#000" d="M174.498 12.709v4.948h5.988v-4.948h7.401v4.948h5.99v-4.948h2.869v15.9c0 6.955-5.639 12.593-12.594 12.593s-12.593-5.638-12.593-12.593v-15.9z"/><path fill="#ff1a9c" d="M177.236 10.798v4.475c0 .64.52 1.161 1.161 1.162h3.236c.641 0 1.162-.521 1.162-1.162v-4.475h7.401v4.475c0 .64.52 1.162 1.161 1.162h3.222c.642 0 1.162-.521 1.162-1.162v-4.475h3.314v15.9c0 6.955-5.639 12.593-12.594 12.593s-12.593-5.638-12.593-12.593v-15.9z"/></g></svg>