<svg xmlns="http://www.w3.org/2000/svg" width="208" height="52" fill="none" viewBox="0 0 208 52" aria-labelledby="logoTitleDark logoDescDark"><title>KKArt! Logotype Dark Version</title><desc>The official logotype for KKArt, designed for use on dark backgrounds. It features the stylized &quot;Kou-K-K&quot; text and the &quot;KKArt!&quot; symbol in white.</desc><switch><g systemLanguage="fa"><title>لوگوتایپ کوشک هنر (نسخه تیره)</title><desc>لوگوتایپ رسمی کوشک هنر که برای استفاده روی پس‌زمینه‌های تیره طراحی شده است.</desc></g><g systemLanguage="en"><title>KKArt! Logotype (Dark Version)</title><desc>The official logotype for KKArt, designed for use on dark backgrounds.</desc></g></switch><g fill="#fff" aria-label="Kou-K-K logotype text in white"><path d="M24.758 19.213q0 .31.178.596.177.286.463.506.294.22.625.343.263-.082.541-.27.277-.195.471-.465a.98.98 0 0 0 .193-.58q0-.35-.162-.644a1.25 1.25 0 0 0-.432-.473 1.03 1.03 0 0 0-.595-.18 1.3 1.3 0 0 0-.904.343 1.06 1.06 0 0 0-.378.824m.934-2.604.873-1.82q1.428.72 2.525 1.323a14.4 14.4 0 0 1 1.846 1.183q.75.579 1.128 1.233.386.652.386 1.477 0 1.616-.927 2.465-.92.84-2.448.84-.54 0-1.128-.097a12 12 0 0 1-1.127-.245 19 19 0 0 1-.927-.278q-.695.261-1.59.482a7.2 7.2 0 0 1-1.738.22H21.8v-2.195h.664q.309 0 .564-.009.262-.008.54-.032a2.4 2.4 0 0 1-.331-.555 4 4 0 0 1-.217-.686 3 3 0 0 1 .27-2.09 2.8 2.8 0 0 1 1.012-1.085q.672-.424 1.63-.424.702 0 1.367.359.672.36 1.096.98.433.61.433 1.403 0 .441-.1.825a3.15 3.15 0 0 1-.673 1.305q.356.058.703.09a6 6 0 0 0 .533.033q.548 0 .95-.27.402-.277.402-.979a.8.8 0 0 0-.132-.4 2.2 2.2 0 0 0-.432-.506 7 7 0 0 0-.865-.653q-.555-.367-1.429-.832a44 44 0 0 0-2.093-1.061m2.479-3.525q-.147-.007-.262-.016a3 3 0 0 1-.286-.04 2.6 2.6 0 0 1-1.127.889q-.711.301-1.692.359l-.115-.735A6.3 6.3 0 0 0 26 13.297q.579-.18.873-.449a2.1 2.1 0 0 1-.672-.212 1.4 1.4 0 0 1-.525-.465q-.2-.302-.2-.775 0-.572.378-.98a1.23 1.23 0 0 1 .95-.416q.57 0 .95.392.378.384.378 1.012 0 .237-.047.481a3 3 0 0 1-.139.49q.085.008.147.017l.162.016zm-.957-.881q.084-.188.139-.4.054-.22.054-.392a.62.62 0 0 0-.17-.457.53.53 0 0 0-.402-.171.58.58 0 0 0-.455.204.68.68 0 0 0-.17.44q0 .245.139.392a1 1 0 0 0 .37.229q.233.081.495.155"/><path d="m18.688 17.932 1.807-.229.154 2.253q.024.425.163.702.147.277.424.408.28.13.71.13h.163v2.196h-.178q-.525 0-.942-.139a2.5 2.5 0 0 1-.733-.383 2.7 2.7 0 0 1-.549-.572 3.1 3.1 0 0 1-1.112.809q-.648.285-1.382.285h-.741v-2.195h.74q.874 0 1.213-.335t.34-1.184q0-.456-.023-.89-.015-.44-.054-.856m.37-4.269 1.337 1.412-1.336 1.412-1.336-1.412z"/><path d="M16.564 23.392a2.5 2.5 0 0 1-.687-.09 1.9 1.9 0 0 1-.525-.228 6 6 0 0 1-.765 2.187 5.1 5.1 0 0 1-1.552 1.624q-.965.662-2.325.947L10 25.824q1.143-.27 1.938-.718.803-.441 1.22-1.167.418-.726.418-1.812 0-.735-.209-1.632a19 19 0 0 0-.456-1.69l1.916-.67.448 1.82q.139.564.409.907.278.335.795.335h.302v2.195zm50.399 13.373.019-3.13.38-.4h15.334q1.405 0 1.88-.282.474-.3.474-.842 0-.522-.21-1.003-.19-.48-.34-.682h1.575q-.893.22-1.538.341-.645.12-1.177.18-.512.04-1.043.04H71.309q-1.101 0-1.841-.581-.74-.602-.892-2.066l7.971-7.382h.228l1.518 2.488-5.713 5.115-.55-1.104h11.122q.967 0 1.86-.06.91-.06 1.48-.18h.228q.474.461.968 1.243.511.783.873 1.765.36.963.36 2.047 0 .862-.284 1.684-.266.803-.95 1.445-.663.622-1.84 1.003-1.158.36-2.96.36z"/><path d="M59.15 33.234h3.682l-1.31.582q-.285-.22-.38-.822-.093-.603-.094-1.525v-5.295l3.796-.402h.228v9.187l-1.633-1.725h3.91v3.13l-.38.4H58.77v-3.129zm3.872-8.745q-.702 0-1.215-.462-.493-.48-.493-1.344 0-.882.493-1.344a1.76 1.76 0 0 1 1.215-.46q.72 0 1.214.46.495.462.494 1.344 0 .862-.494 1.344-.494.462-1.214.462"/><path d="m51.077 36.765 1.67-3.53h6.396l-.02 3.129-.379.4zM40.96 28.56l-.55-1.104h11.121q.969 0 1.86-.06.911-.06 1.48-.18h.228q.475.46.95 1.143a7.6 7.6 0 0 1 .834 1.484q.342.803.342 1.625 0 .983-.456 1.886-.436.902-1.556 1.624l-.55 1.344q-.55.201-1.253.321t-1.575.12H35.343l.019-3.129.38-.4h15.335q1.404 0 1.879-.342.474-.36.474-.983 0-.52-.209-.902a4 4 0 0 0-.341-.582h1.575q-.892.22-1.537.341-.645.12-1.177.18-.513.04-1.044.04H39.69q-1.1 0-1.84-.581-.741-.602-.893-2.066l7.971-7.382h.228l1.518 2.488z"/><path d="M23.995 32.131q0-1.203.398-2.287a6.3 6.3 0 0 1 1.14-1.905 5.5 5.5 0 0 1 1.67-1.304 4.5 4.5 0 0 1 2.05-.482q1.005 0 1.992.542t1.803 1.565q.816 1.022 1.31 2.487.493 1.465.493 3.31 0 2.607-.816 4.372-.797 1.785-2.24 2.668-1.442.903-3.397.903-1.329 0-2.296-.24-.969-.242-1.5-.482l-.531-.24 1.139-3.29h.227a6.7 6.7 0 0 0 1.727.561q.912.16 1.462.16.816 0 1.461-.2a2.7 2.7 0 0 0 1.082-.622l-.968.983q.171-.24.342-.702.17-.441.265-1.304.114-.882.114-2.407 0-.943-.17-1.765a6.2 6.2 0 0 0-.494-1.565 5.6 5.6 0 0 0-.854-1.303 4.7 4.7 0 0 0-1.177-1.023l1.784.14q-1.1.24-1.727 1.063a2.97 2.97 0 0 0-.607 1.805q0 .342.19.763.19.42.607.722.436.28 1.177.28h1.385v-.1h5.068v3.13l-.38.4-6.187.02q-1.651 0-2.904-.54-1.253-.562-1.955-1.606-.683-1.042-.683-2.507m-10.173 5.998q.55.14 1.063.22.512.1.987.1.739 0 1.253-.22.512-.22.645-.361l-.873.963q.323-.442.512-1.184.19-.741.266-1.745.095-1.003.095-2.186 0-1.785-.171-3.41a111 111 0 0 0-.36-3.05l3.871-.4h.228q.19 1.404.322 3.169.134 1.745.133 3.37 0 2.406-.493 4.052-.474 1.644-1.367 2.627a5 5 0 0 1-2.087 1.445q-1.196.46-2.657.46-.495 0-1.063-.08-.57-.08-.968-.16l-.399-.08v-.24zm127.498-1.364 2.126-3.745h18.625q.025-.721-.43-1.15-.43-.454-1.848-.454h-14.955l3.593-3.745h11.362q1.873 0 3.012.562 1.138.561 1.72 1.498.608.935.836 2.06.227 1.122.227 2.272.026 1.124.026 2.087 0 .32-.253.454a1.4 1.4 0 0 1-.507.16zm8.174-5.59-1.797-2.728 9.212-9.628v5.59q-.178-.295-.355-.295a.45.45 0 0 0-.329.16z"/><path d="m137.59 36.765.76-3.745h4.985v3.745zm4.353-4.547-4.277-4.547q.33 0 .937-.026.607-.053 1.265-.188a5.2 5.2 0 0 0 1.24-.454q.582-.32.835-.83zm-4.277 4.547a4 4 0 0 1-2.151-.615 4.7 4.7 0 0 1-1.594-1.659 4.6 4.6 0 0 1-.582-2.273q0-1.257.582-2.273a4.7 4.7 0 0 1 1.594-1.658 4 4 0 0 1 2.151-.616q1.19 0 2.151.616.962.614 1.544 1.658.582 1.016.582 2.273a4.64 4.64 0 0 1-.582 2.3 4.64 4.64 0 0 1-1.544 1.632 3.9 3.9 0 0 1-2.151.615m0-3.745q.33 0 .532-.214a.88.88 0 0 0 .202-.588q0-.348-.202-.562a.66.66 0 0 0-.532-.24.74.74 0 0 0-.556.24.74.74 0 0 0-.228.562q0 .348.228.588a.78.78 0 0 0 .556.214m-3.441 7.275q1.442.401 2.277.214.861-.16 1.266-.642.404-.48.506-.99.126-.48.126-.722v-4.814l3.543-1.123v5.135q0 1.578-.633 2.568-.632 1.015-1.619 1.47a4.5 4.5 0 0 1-2.05.482 4.75 4.75 0 0 1-1.999-.428q-.911-.4-1.417-1.15m-17.841-3.53V33.02h2.025V28.5l3.543-.829v5.35h1.518V28.5l3.543-.83v5.35h1.518V28.5l3.543-.83v8.479q0 .32-.253.454-.254.135-.506.16h-14.931m9.242-19.175q-.608 0-1.038-.454a1.54 1.54 0 0 1-.43-1.097q0-.642.43-1.096a1.38 1.38 0 0 1 1.038-.455q.608 0 1.037.455.43.454.431 1.096 0 .642-.431 1.097a1.37 1.37 0 0 1-1.037.454m2.176 4.012q-.608 0-1.037-.455a1.54 1.54 0 0 1-.431-1.096q0-.642.431-1.097a1.37 1.37 0 0 1 1.037-.454q.607 0 1.038.454.43.456.43 1.097 0 .642-.43 1.096a1.38 1.38 0 0 1-1.038.455m-4.378 0q-.607 0-1.037-.455a1.54 1.54 0 0 1-.43-1.096q0-.642.43-1.097a1.38 1.38 0 0 1 1.037-.454q.608 0 1.038.454.43.456.43 1.097 0 .642-.43 1.096a1.38 1.38 0 0 1-1.038.455"/><path d="M112.438 36.765V33.02h4.96v3.745zm-22.37 0 2.125-3.745h18.625q.026-.721-.43-1.15-.43-.454-1.847-.454H93.585l3.594-3.745h11.362q1.872 0 3.011.562 1.139.561 1.721 1.498.607.935.835 2.06.228 1.122.228 2.272.025 1.124.025 2.087 0 .32-.253.454-.253.135-.506.16zm8.173-5.59-1.796-2.728 9.211-9.628v5.59q-.177-.295-.354-.295a.45.45 0 0 0-.329.16z"/></g><path d="M199.142 11a.56.56 0 0 1 .56.56v16.09c0 7.374-5.977 13.351-13.351 13.351C178.978 41 173 35.023 173 27.649V11.56a.56.56 0 0 1 .561-.561h3.388a1 1 0 0 1 1 1v3.62a1 1 0 0 0 1 1h1.951a1 1 0 0 0 1-1V12a1 1 0 0 1 1-1h6.97a1 1 0 0 1 1 1v3.62a1 1 0 0 0 1 1h1.938a1 1 0 0 0 1-1V12a1 1 0 0 1 1-1z" fill="#fff" aria-label="KKArt! symbol in white"/></svg>